<?xml version="1.0" standalone="no"?>
<!DOCTYPE svg PUBLIC "-//W3C//DTD SVG 20010904//EN"
 "http://www.w3.org/TR/2001/REC-SVG-20010904/DTD/svg10.dtd">
<svg version="1.0" xmlns="http://www.w3.org/2000/svg"
 width="300.000000pt" height="188.000000pt" viewBox="0 0 300.000000 188.000000"
 preserveAspectRatio="xMidYMid meet">
<metadata>
Created by potrace 1.10, written by Peter Selinger 2001-2011
</metadata>
<g transform="translate(0.000000,188.000000) scale(0.100000,-0.100000)"
fill="#000000" stroke="none">
<path d="M1275 1517 l-160 -92 -3 -133 c-1 -72 0 -132 2 -132 3 0 38 20 78 44
l73 45 5 -285 5 -286 88 -45 c48 -25 91 -42 95 -38 4 3 9 215 10 469 4 442 -1
546 -26 546 -4 0 -79 -42 -167 -93z m167 -480 c2 -229 0 -405 -4 -390 -6 22
-25 37 -83 68 l-75 40 0 292 c0 161 -2 293 -5 293 -2 0 -28 -15 -57 -34 -106
-67 -98 -69 -98 27 l0 84 158 90 157 90 2 -71 c2 -39 4 -259 5 -489z"/>
<path d="M1553 1588 c-4 -7 -9 -59 -11 -115 -4 -97 -3 -102 19 -116 13 -8 124
-69 246 -135 229 -123 243 -127 243 -72 0 23 -23 37 -240 154 l-240 128 0 79
c0 43 2 79 5 79 2 0 144 -75 315 -167 l310 -167 0 -111 0 -111 -172 -100
c-139 -81 -174 -106 -176 -125 -2 -13 -8 -28 -14 -34 -7 -7 -8 -1 -3 20 4 17
9 72 11 124 1 52 7 97 13 100 13 8 18 89 5 100 -5 5 -72 43 -149 84 -123 67
-142 74 -155 61 -13 -13 -15 -82 -15 -504 0 -268 3 -491 7 -495 7 -7 165 82
176 99 8 13 7 -3 10 326 l2 255 45 29 c25 15 48 26 51 24 2 -3 0 -17 -6 -32
-16 -42 -13 -205 3 -212 14 -5 356 189 369 210 5 6 7 76 5 156 l-2 145 -310
167 c-170 92 -315 168 -322 168 -6 0 -15 -6 -20 -12z m255 -446 c28 -14 52
-31 52 -37 0 -5 -30 -27 -65 -48 l-65 -38 -1 -217 c-1 -119 -3 -250 -5 -291
l-3 -74 -68 -43 c-49 -31 -72 -52 -81 -76 -12 -33 -13 -32 -7 16 3 27 5 248 5
492 l0 444 93 -51 c50 -27 116 -62 145 -77z"/>
<path d="M979 1017 c-86 -51 -164 -98 -173 -106 -13 -11 -16 -33 -15 -120 0
-58 4 -125 7 -149 l7 -43 319 -170 c176 -93 323 -166 327 -162 10 11 15 192 6
219 -5 14 -78 59 -233 143 -125 67 -228 120 -230 118 -2 -2 33 -23 79 -47 45
-24 85 -48 88 -53 3 -5 10 -9 15 -9 18 -1 54 -21 54 -30 0 -5 5 -6 10 -3 6 3
10 1 10 -5 0 -6 5 -8 10 -5 6 3 10 2 10 -4 0 -12 110 -72 120 -66 4 3 10 -2
14 -10 3 -8 12 -15 21 -15 12 0 15 -14 15 -67 0 -38 2 -86 5 -108 5 -39 4 -39
-6 -10 -9 27 -42 47 -262 164 -139 74 -279 150 -312 168 l-60 34 3 113 3 113
162 94 c88 52 167 95 174 97 10 3 13 -15 13 -75 l0 -78 -101 -59 c-96 -56
-100 -60 -97 -90 2 -21 8 -31 19 -30 8 1 59 27 112 58 l97 57 0 83 c0 94 -14
146 -38 145 -10 0 -87 -42 -173 -92z"/>
<path d="M1953 1070 c-29 -17 -53 -33 -53 -36 0 -6 88 42 105 57 16 16 1 9
-52 -21z"/>
</g>
</svg>
